<svg id="visual" viewBox="0 0 900 600" width="900" height="600" xmlns="http://www.w3.org/2000/svg" xmlns:xlink="http://www.w3.org/1999/xlink" version="1.1"><rect x="0" y="0" width="900" height="600" fill="#e2e8f0"></rect><path d="M0 220L21.5 222.3C43 224.7 86 229.3 128.8 226.8C171.7 224.3 214.3 214.7 257.2 203.5C300 192.3 343 179.7 385.8 174.3C428.7 169 471.3 171 514.2 175.8C557 180.7 600 188.3 642.8 191.8C685.7 195.3 728.3 194.7 771.2 202.2C814 209.7 857 225.3 878.5 233.2L900 241L900 0L878.5 0C857 0 814 0 771.2 0C728.3 0 685.7 0 642.8 0C600 0 557 0 514.2 0C471.3 0 428.7 0 385.8 0C343 0 300 0 257.2 0C214.3 0 171.7 0 128.8 0C86 0 43 0 21.5 0L0 0Z" fill="#e0bbe8"></path><path d="M0 130L21.5 130.7C43 131.3 86 132.7 128.8 131.2C171.7 129.7 214.3 125.3 257.2 127.5C300 129.7 343 138.3 385.8 152C428.7 165.7 471.3 184.3 514.2 180.7C557 177 600 151 642.8 145.8C685.7 140.7 728.3 156.3 771.2 164C814 171.7 857 171.3 878.5 171.2L900 171L900 0L878.5 0C857 0 814 0 771.2 0C728.3 0 685.7 0 642.8 0C600 0 557 0 514.2 0C471.3 0 428.7 0 385.8 0C343 0 300 0 257.2 0C214.3 0 171.7 0 128.8 0C86 0 43 0 21.5 0L0 0Z" fill="#de9dd5"></path><path d="M0 140L21.5 139.2C43 138.3 86 136.7 128.8 139.7C171.7 142.7 214.3 150.3 257.2 151.3C300 152.3 343 146.7 385.8 138C428.7 129.3 471.3 117.7 514.2 114.5C557 111.3 600 116.7 642.8 124.5C685.7 132.3 728.3 142.7 771.2 141.8C814 141 857 129 878.5 123L900 117L900 0L878.5 0C857 0 814 0 771.2 0C728.3 0 685.7 0 642.8 0C600 0 557 0 514.2 0C471.3 0 428.7 0 385.8 0C343 0 300 0 257.2 0C214.3 0 171.7 0 128.8 0C86 0 43 0 21.5 0L0 0Z" fill="#df7cbc"></path><path d="M0 61L21.5 68.3C43 75.7 86 90.3 128.8 97.5C171.7 104.7 214.3 104.3 257.2 98.3C300 92.3 343 80.7 385.8 81.8C428.7 83 471.3 97 514.2 100C557 103 600 95 642.8 89C685.7 83 728.3 79 771.2 76.3C814 73.7 857 72.3 878.5 71.7L900 71L900 0L878.5 0C857 0 814 0 771.2 0C728.3 0 685.7 0 642.8 0C600 0 557 0 514.2 0C471.3 0 428.7 0 385.8 0C343 0 300 0 257.2 0C214.3 0 171.7 0 128.8 0C86 0 43 0 21.5 0L0 0Z" fill="#df589c"></path><path d="M0 63L21.5 61.7C43 60.3 86 57.7 128.8 58.5C171.7 59.3 214.3 63.7 257.2 62.2C300 60.7 343 53.3 385.8 52C428.7 50.7 471.3 55.3 514.2 58.7C557 62 600 64 642.8 59.5C685.7 55 728.3 44 771.2 41.2C814 38.3 857 43.7 878.5 46.3L900 49L900 0L878.5 0C857 0 814 0 771.2 0C728.3 0 685.7 0 642.8 0C600 0 557 0 514.2 0C471.3 0 428.7 0 385.8 0C343 0 300 0 257.2 0C214.3 0 171.7 0 128.8 0C86 0 43 0 21.5 0L0 0Z" fill="#db2777"></path></svg>